<mxfile host="app.diagrams.net" agent="Mozilla/5.0 (Windows NT 10.0; Win64; x64) AppleWebKit/537.36 (KHTML, like Gecko) Chrome/141.0.0.0 Safari/537.36" version="28.2.5">
  <diagram name="Página-1" id="zGx-LOJYrlp_I5BqLIc6">
    <mxGraphModel dx="1042" dy="608" grid="1" gridSize="10" guides="1" tooltips="1" connect="1" arrows="1" fold="1" page="1" pageScale="1" pageWidth="827" pageHeight="1169" math="0" shadow="0">
      <root>
        <mxCell id="0" />
        <mxCell id="1" parent="0" />
        <mxCell id="z1jLb5idjN7-gWeRu232-33" value="" style="edgeStyle=orthogonalEdgeStyle;rounded=0;orthogonalLoop=1;jettySize=auto;html=1;" edge="1" parent="1" source="z1jLb5idjN7-gWeRu232-1" target="z1jLb5idjN7-gWeRu232-13">
          <mxGeometry relative="1" as="geometry">
            <Array as="points">
              <mxPoint x="690" y="350" />
              <mxPoint x="685" y="350" />
            </Array>
          </mxGeometry>
        </mxCell>
        <mxCell id="z1jLb5idjN7-gWeRu232-1" value="&lt;font style=&quot;vertical-align: inherit;&quot; dir=&quot;auto&quot;&gt;&lt;font style=&quot;vertical-align: inherit;&quot; dir=&quot;auto&quot;&gt;Movimentacao&lt;/font&gt;&lt;/font&gt;" style="swimlane;fontStyle=0;childLayout=stackLayout;horizontal=1;startSize=26;fillColor=none;horizontalStack=0;resizeParent=1;resizeParentMax=0;resizeLast=0;collapsible=1;marginBottom=0;whiteSpace=wrap;html=1;" vertex="1" parent="1">
          <mxGeometry x="600" y="400" width="180" height="106" as="geometry" />
        </mxCell>
        <mxCell id="z1jLb5idjN7-gWeRu232-9" value="+int produto_id &#xa;+Tipo de string &#xa;+int quantidade &#xa;+dados de dados" style="text;whiteSpace=wrap;align=center;" vertex="1" parent="z1jLb5idjN7-gWeRu232-1">
          <mxGeometry y="26" width="180" height="80" as="geometry" />
        </mxCell>
        <mxCell id="z1jLb5idjN7-gWeRu232-5" value="&lt;div style=&quot;text-align: left; text-wrap-mode: wrap;&quot;&gt;&lt;br&gt;&lt;/div&gt;" style="text;html=1;align=center;verticalAlign=middle;resizable=0;points=[];autosize=1;strokeColor=none;fillColor=none;" vertex="1" parent="1">
          <mxGeometry x="390" y="420" width="20" height="30" as="geometry" />
        </mxCell>
        <mxCell id="z1jLb5idjN7-gWeRu232-10" value="Equipamento" style="swimlane;fontStyle=1;align=center;verticalAlign=top;childLayout=stackLayout;horizontal=1;startSize=26;horizontalStack=0;resizeParent=1;resizeParentMax=0;resizeLast=0;collapsible=1;marginBottom=0;whiteSpace=wrap;html=1;" vertex="1" parent="1">
          <mxGeometry x="560" y="80" width="250" height="260" as="geometry" />
        </mxCell>
        <mxCell id="z1jLb5idjN7-gWeRu232-14" value="        +int id&#xa;        +String nome&#xa;        +String categoria&#xa;        +int quantidade&#xa;        +float preco_compra&#xa;        +float preco_venda&#xa;        +String fornecedor&#xa;        +String numero_serie&#xa;        +String status&#xa;        +date data_aquisicao&#xa;        +int garantia_meses&#xa;      " style="text;whiteSpace=wrap;align=left;" vertex="1" parent="z1jLb5idjN7-gWeRu232-10">
          <mxGeometry y="26" width="250" height="200" as="geometry" />
        </mxCell>
        <mxCell id="z1jLb5idjN7-gWeRu232-12" value="" style="line;strokeWidth=1;fillColor=none;align=left;verticalAlign=middle;spacingTop=-1;spacingLeft=3;spacingRight=3;rotatable=0;labelPosition=right;points=[];portConstraint=eastwest;strokeColor=inherit;" vertex="1" parent="z1jLb5idjN7-gWeRu232-10">
          <mxGeometry y="226" width="250" height="8" as="geometry" />
        </mxCell>
        <mxCell id="z1jLb5idjN7-gWeRu232-13" value="&lt;span style=&quot;white-space: pre;&quot;&gt;&#x9;&lt;/span&gt;+descricao()" style="text;strokeColor=none;fillColor=none;align=left;verticalAlign=top;spacingLeft=4;spacingRight=4;overflow=hidden;rotatable=0;points=[[0,0.5],[1,0.5]];portConstraint=eastwest;whiteSpace=wrap;html=1;" vertex="1" parent="z1jLb5idjN7-gWeRu232-10">
          <mxGeometry y="234" width="250" height="26" as="geometry" />
        </mxCell>
        <mxCell id="z1jLb5idjN7-gWeRu232-15" value="Usuario" style="swimlane;fontStyle=1;align=center;verticalAlign=top;childLayout=stackLayout;horizontal=1;startSize=26;horizontalStack=0;resizeParent=1;resizeParentMax=0;resizeLast=0;collapsible=1;marginBottom=0;whiteSpace=wrap;html=1;" vertex="1" parent="1">
          <mxGeometry x="10" y="80" width="260" height="140" as="geometry" />
        </mxCell>
        <mxCell id="z1jLb5idjN7-gWeRu232-16" value="+String username&#xa;+String password" style="text;whiteSpace=wrap;align=center;" vertex="1" parent="z1jLb5idjN7-gWeRu232-15">
          <mxGeometry y="26" width="260" height="64" as="geometry" />
        </mxCell>
        <mxCell id="z1jLb5idjN7-gWeRu232-17" value="" style="line;strokeWidth=1;fillColor=none;align=left;verticalAlign=middle;spacingTop=-1;spacingLeft=3;spacingRight=3;rotatable=0;labelPosition=right;points=[];portConstraint=eastwest;strokeColor=inherit;" vertex="1" parent="z1jLb5idjN7-gWeRu232-15">
          <mxGeometry y="90" width="260" height="8" as="geometry" />
        </mxCell>
        <mxCell id="z1jLb5idjN7-gWeRu232-18" value="+validar_login(String username, String password)" style="text;strokeColor=none;fillColor=none;align=left;verticalAlign=top;spacingLeft=4;spacingRight=4;overflow=hidden;rotatable=0;points=[[0,0.5],[1,0.5]];portConstraint=eastwest;whiteSpace=wrap;html=1;" vertex="1" parent="z1jLb5idjN7-gWeRu232-15">
          <mxGeometry y="98" width="260" height="42" as="geometry" />
        </mxCell>
        <mxCell id="z1jLb5idjN7-gWeRu232-19" value="EstoqueModel" style="swimlane;fontStyle=1;align=center;verticalAlign=top;childLayout=stackLayout;horizontal=1;startSize=26;horizontalStack=0;resizeParent=1;resizeParentMax=0;resizeLast=0;collapsible=1;marginBottom=0;whiteSpace=wrap;html=1;" vertex="1" parent="1">
          <mxGeometry x="320" y="80" width="210" height="200" as="geometry" />
        </mxCell>
        <mxCell id="z1jLb5idjN7-gWeRu232-20" value="             +List produtos&#xa;             +List movimentacoes" style="text;whiteSpace=wrap;align=left;" vertex="1" parent="z1jLb5idjN7-gWeRu232-19">
          <mxGeometry y="26" width="210" height="54" as="geometry" />
        </mxCell>
        <mxCell id="z1jLb5idjN7-gWeRu232-21" value="" style="line;strokeWidth=1;fillColor=none;align=left;verticalAlign=middle;spacingTop=-1;spacingLeft=3;spacingRight=3;rotatable=0;labelPosition=right;points=[];portConstraint=eastwest;strokeColor=inherit;" vertex="1" parent="z1jLb5idjN7-gWeRu232-19">
          <mxGeometry y="80" width="210" height="8" as="geometry" />
        </mxCell>
        <mxCell id="z1jLb5idjN7-gWeRu232-22" value="+adicionar_produto(Equipamento equipamento)&lt;br/&gt;&#x9;    +listar_produtos()&lt;br/&gt;&#x9;    +remover_produto(int id)&lt;br/&gt;&#x9;    +registrar_venda(int produto_id, int quantidade)" style="text;strokeColor=none;fillColor=none;align=left;verticalAlign=top;spacingLeft=4;spacingRight=4;overflow=hidden;rotatable=0;points=[[0,0.5],[1,0.5]];portConstraint=eastwest;whiteSpace=wrap;html=1;" vertex="1" parent="z1jLb5idjN7-gWeRu232-19">
          <mxGeometry y="88" width="210" height="112" as="geometry" />
        </mxCell>
        <mxCell id="z1jLb5idjN7-gWeRu232-31" value="" style="edgeStyle=orthogonalEdgeStyle;rounded=0;orthogonalLoop=1;jettySize=auto;html=1;" edge="1" parent="1" source="z1jLb5idjN7-gWeRu232-22" target="z1jLb5idjN7-gWeRu232-14">
          <mxGeometry relative="1" as="geometry" />
        </mxCell>
      </root>
    </mxGraphModel>
  </diagram>
</mxfile>
